<?xml version="1.0" encoding="utf-8"?>
<!-- Generator: Adobe Illustrator 19.0.0, SVG Export Plug-In . SVG Version: 6.00 Build 0)  -->
<svg version="1.1" id="Calque_1" xmlns="http://www.w3.org/2000/svg" xmlns:xlink="http://www.w3.org/1999/xlink" x="0px" y="0px"
	 viewBox="-49 141 512 512" style="enable-background:new -49 141 512 512;" xml:space="preserve">
<style type="text/css">
	.st0{fill:#DC4E41;}
	.st1{fill:#FFFFFF;}
</style>
<g>
	<circle id="XMLID_30_" class="st0" cx="207" cy="397" r="206"/>
	<path id="svg_4" class="st0" d="M72.7,398.9c-0.7,35.4,23.7,69.3,57.3,80.3c31.6,10.6,70.5,2.7,91.6-24.4
		c15.4-19,18.9-44.3,17.2-67.9c-27.1-0.2-54.2-0.2-81.2-0.1c0,9.7,0,19.3,0,28.9c16.2,0.4,32.4,0.2,48.7,0.6
		c-4.1,14-13.4,27.1-27.6,32.2c-27.3,12-62.2-3.7-70.8-32.4c-10.4-27.5,6.6-60.6,34.7-68.6c17.4-6.1,35.3,0.8,50.2,9.8
		c7.5-7.1,14.6-14.6,21.5-22.2c-16.9-14.2-38.6-22.8-61-20.9C109.4,314.6,71.1,355.1,72.7,398.9z"/>
	<path id="svg_5" class="st0" d="M291.5,362.4c-0.1,8.1-0.2,16.2-0.2,24.3c-8.1,0.1-16.2,0.1-24.3,0.2c0,8.1,0,16.1,0,24.2
		c8.1,0,16.2,0.1,24.3,0.2c0.1,8.1,0.1,16.1,0.2,24.3c8,0,16.1,0,24.2,0c0-8.1,0.1-16.2,0.2-24.3c8.1,0,16.2-0.1,24.3-0.1
		c0-8.1,0-16.1,0-24.2c-8.1,0-16.2-0.1-24.3-0.2c0-8.1-0.1-16.2-0.2-24.3C307.5,362.4,299.5,362.4,291.5,362.4z"/>
	<path id="svg_7" class="st1" d="M72.7,398.9c-1.7-43.8,36.7-84.3,80.5-84.8c22.3-1.9,44.1,6.8,61,20.9c-6.9,7.6-14,15.2-21.5,22.2
		c-14.9-9-32.8-15.9-50.2-9.8c-28.1,8-45.1,41.1-34.7,68.6c8.6,28.7,43.5,44.4,70.8,32.4c14.2-5.1,23.5-18.1,27.6-32.2
		c-16.2-0.3-32.4-0.1-48.7-0.6c0-9.7-0.1-19.3,0-28.9c27,0,54.1-0.1,81.2,0.1c1.7,23.6-1.8,48.9-17.2,67.9
		c-21,27.1-59.9,35-91.6,24.4C96.4,468.1,72,434.3,72.7,398.9L72.7,398.9z"/>
	<path id="svg_8" class="st1" d="M291.5,362.4c8,0,16.1,0,24.1,0c0,8.1,0.1,16.2,0.2,24.3c8.1,0.1,16.2,0.1,24.3,0.2
		c0,8.1,0,16.1,0,24.2c-8.1,0-16.2,0.1-24.3,0.1c-0.1,8.1-0.1,16.2-0.2,24.3c-8.1,0-16.1,0-24.2,0c-0.1-8.1-0.1-16.2-0.2-24.3
		c-8.1-0.1-16.2-0.1-24.3-0.2c0-8.1,0-16.1,0-24.2c8.1,0,16.1-0.1,24.3-0.2C291.3,378.6,291.4,370.4,291.5,362.4z"/>
</g>
</svg>
